<svg width="22" height="22" viewBox="0 0 22 22" fill="none" xmlns="http://www.w3.org/2000/svg">
<path fill-rule="evenodd" clip-rule="evenodd" d="M6.24133 5.41377C6.0128 5.18524 5.64227 5.18524 5.41374 5.41377C5.18521 5.6423 5.18521 6.01282 5.41374 6.24136L10.1725 11.0001L5.41397 15.7586C5.18544 15.9871 5.18544 16.3577 5.41397 16.5862C5.6425 16.8147 6.01302 16.8147 6.24155 16.5862L11.0001 11.8277L15.7586 16.5862C15.9871 16.8147 16.3576 16.8147 16.5862 16.5862C16.8147 16.3577 16.8147 15.9871 16.5862 15.7586L11.8276 11.0001L16.5864 6.24136C16.8149 6.01282 16.8149 5.6423 16.5864 5.41377C16.3579 5.18524 15.9873 5.18524 15.7588 5.41377L11.0001 10.1725L6.24133 5.41377Z" fill="#8C8C8C"/>
</svg>
